<svg width="1200" height="300" viewBox="0 0 1200 300" fill="none" xmlns="http://www.w3.org/2000/svg">
  <defs>
    <linearGradient id="bg" x1="0" y1="0" x2="1200" y2="300" gradientUnits="userSpaceOnUse">
      <stop stop-color="#08121F" />
      <stop offset="1" stop-color="#102A43" />
    </linearGradient>
    <linearGradient id="line" x1="64" y1="0" x2="240" y2="0" gradientUnits="userSpaceOnUse">
      <stop stop-color="#38BDF8" />
      <stop offset="1" stop-color="#22C55E" />
    </linearGradient>
    <linearGradient id="orb" x1="840" y1="54" x2="1050" y2="250" gradientUnits="userSpaceOnUse">
      <stop stop-color="#38BDF8" />
      <stop offset="1" stop-color="#1D4ED8" />
    </linearGradient>
  </defs>

  <rect width="1200" height="300" rx="28" fill="url(#bg)" />

  <g opacity="0.08">
    <path d="M720 0V300" stroke="white" />
    <path d="M800 0V300" stroke="white" />
    <path d="M880 0V300" stroke="white" />
    <path d="M960 0V300" stroke="white" />
    <path d="M1040 0V300" stroke="white" />
    <path d="M1120 0V300" stroke="white" />
  </g>

  <rect x="64" y="58" width="176" height="6" rx="3" fill="url(#line)" />

  <text x="64" y="126" fill="white" font-family="Segoe UI, Arial, sans-serif" font-size="52" font-weight="700">Nihal Jagadeesh</text>
  <text x="64" y="166" fill="#D6E4F0" font-family="Segoe UI, Arial, sans-serif" font-size="23" font-weight="600">Backend development, AI exploration, and practical projects</text>
  <text x="64" y="204" fill="#9FB3C8" font-family="Segoe UI, Arial, sans-serif" font-size="18">Building APIs and learning machine learning.</text>

  <rect x="64" y="230" width="110" height="36" rx="18" fill="#0F2237" stroke="#214D72" />
  <text x="91" y="253" fill="#E6EEF8" font-family="Segoe UI, Arial, sans-serif" font-size="15" font-weight="700">PYTHON</text>

  <rect x="186" y="230" width="120" height="36" rx="18" fill="#0F2237" stroke="#214D72" />
  <text x="214" y="253" fill="#E6EEF8" font-family="Segoe UI, Arial, sans-serif" font-size="15" font-weight="700">FASTAPI</text>

  <rect x="318" y="230" width="66" height="36" rx="18" fill="#0F2237" stroke="#214D72" />
  <text x="340" y="253" fill="#E6EEF8" font-family="Segoe UI, Arial, sans-serif" font-size="15" font-weight="700">AI</text>

  <g opacity="0.95">
    <circle cx="970" cy="150" r="96" fill="url(#orb)" opacity="0.12" />
    <circle cx="970" cy="150" r="72" stroke="#38BDF8" stroke-opacity="0.35" stroke-width="2" />
    <circle cx="970" cy="150" r="44" stroke="#22C55E" stroke-opacity="0.5" stroke-width="2" />
    <circle cx="970" cy="150" r="10" fill="#38BDF8" />
  </g>
</svg>
